<svg width="28" height="28" viewBox="0 0 28 28" fill="none" xmlns="http://www.w3.org/2000/svg">
<path d="M4.66666 23.3332C4.02499 23.3332 3.47083 23.1096 3.00416 22.6623C2.55694 22.1957 2.33333 21.6415 2.33333 20.9998V6.99984C2.33333 6.35817 2.55694 5.81373 3.00416 5.3665C3.47083 4.89984 4.02499 4.6665 4.66666 4.6665H23.3333C23.975 4.6665 24.5194 4.89984 24.9667 5.3665C25.4333 5.81373 25.6667 6.35817 25.6667 6.99984V20.9998C25.6667 21.6415 25.4333 22.1957 24.9667 22.6623C24.5194 23.1096 23.975 23.3332 23.3333 23.3332H4.66666ZM14 15.1665L23.3333 9.33317V6.99984L14 12.8332L4.66666 6.99984V9.33317L14 15.1665Z" fill="#E6E0E9"/>
</svg>
